<svg width="24" height="24" viewBox="0 0 24 24" fill="none" xmlns="http://www.w3.org/2000/svg">
<path d="M9.17 12.71L13.41 16.95C13.503 17.0437 13.6136 17.1181 13.7354 17.1689C13.8573 17.2197 13.988 17.2458 14.12 17.2458C14.252 17.2458 14.3827 17.2197 14.5046 17.1689C14.6264 17.1181 14.737 17.0437 14.83 16.95C15.0162 16.7626 15.1208 16.5092 15.1208 16.245C15.1208 15.9808 15.0162 15.7274 14.83 15.54L11.29 12L14.83 8.45999C15.0162 8.27263 15.1208 8.01918 15.1208 7.75499C15.1208 7.4908 15.0162 7.23735 14.83 7.04999C14.7366 6.95731 14.6257 6.88398 14.5039 6.83422C14.3821 6.78445 14.2516 6.75923 14.12 6.75999C13.9884 6.75923 13.8579 6.78445 13.7361 6.83422C13.6143 6.88398 13.5034 6.95731 13.41 7.04999L9.17 11.29C9.07627 11.383 9.00187 11.4936 8.9511 11.6154C8.90034 11.7373 8.8742 11.868 8.8742 12C8.8742 12.132 8.90034 12.2627 8.9511 12.3846C9.00187 12.5064 9.07627 12.617 9.17 12.71Z" fill="black"/>
</svg>
