<svg width="30" height="31" viewBox="0 0 30 31" fill="none" xmlns="http://www.w3.org/2000/svg">
<path d="M19.425 14.4914L12.35 7.2393C12.2338 7.11899 12.0956 7.0235 11.9433 6.95834C11.7909 6.89317 11.6276 6.85962 11.4625 6.85962C11.2975 6.85962 11.1341 6.89317 10.9818 6.95834C10.8295 7.0235 10.6912 7.11899 10.575 7.2393C10.3422 7.47979 10.2116 7.80511 10.2116 8.14421C10.2116 8.48331 10.3422 8.80863 10.575 9.04913L16.7625 15.467L10.575 21.8206C10.3422 22.0611 10.2116 22.3864 10.2116 22.7255C10.2116 23.0646 10.3422 23.3899 10.575 23.6304C10.6908 23.7517 10.8289 23.8482 10.9812 23.9143C11.1336 23.9804 11.2972 24.0148 11.4625 24.0155C11.6279 24.0148 11.7915 23.9804 11.9439 23.9143C12.0962 23.8482 12.2343 23.7517 12.35 23.6304L19.425 16.3783C19.5519 16.2581 19.6532 16.1122 19.7224 15.9498C19.7917 15.7875 19.8274 15.6121 19.8274 15.4349C19.8274 15.2576 19.7917 15.0823 19.7224 14.9199C19.6532 14.7575 19.5519 14.6116 19.425 14.4914Z" fill="black"/>
</svg>
